# xmcd
#
# Track frame offsets: 
#        150
#        14485
#        28120
#        43275
#        58602
#        74835
#        90455
#        105642
#        122142
#        137647
#        155587
#
# Disc length: 2264 seconds
#
# Revision: 2
# Processed by: cddbd v1.5PL3 Copyright (c) Steve Scherf et al.
# Submitted via: ExactAudioCopy v0.90b4
#
DISCID=9e08d60b
DTITLE=Mike Reid - Turning For Home
DYEAR=1900
DGENRE=Country
TTITLE0=Walk On Faith
TTITLE1=Till You Were Gone
TTITLE2=I'll Stop Loving You
TTITLE3=I Got A Life
TTITLE4=Turning For Home
TTITLE5=As Simple As That
TTITLE6=Everything To Me
TTITLE7=Constant Companion
TTITLE8=This Road
TTITLE9=Even A Strong Man
TTITLE10=Your Love Stays With Me
EXTD=
EXTT0=
EXTT1=
EXTT2=
EXTT3=
EXTT4=
EXTT5=
EXTT6=
EXTT7=
EXTT8=
EXTT9=
EXTT10=
PLAYORDER=
